<?xml version="1.0" encoding="UTF-8"?>
<svg xmlns="http://www.w3.org/2000/svg" xmlns:xlink="http://www.w3.org/1999/xlink" width="20pt" height="20pt" viewBox="0 0 20 20" version="1.1">
<g id="surface1">
<path style=" stroke:none;fill-rule:nonzero;fill:rgb(0%,0%,0%);fill-opacity:1;" d="M 19.972656 5.878906 C 19.925781 4.816406 19.753906 4.085938 19.507812 3.453125 C 19.253906 2.78125 18.863281 2.179688 18.351562 1.679688 C 17.851562 1.171875 17.246094 0.777344 16.582031 0.527344 C 15.945312 0.28125 15.21875 0.109375 14.15625 0.0625 C 13.085938 0.0117188 12.746094 0 10.03125 0 C 7.320312 0 6.980469 0.0117188 5.914062 0.0585938 C 4.851562 0.105469 4.121094 0.277344 3.488281 0.523438 C 2.816406 0.777344 2.214844 1.167969 1.714844 1.679688 C 1.207031 2.179688 0.8125 2.785156 0.5625 3.449219 C 0.316406 4.085938 0.144531 4.8125 0.0976562 5.875 C 0.046875 6.945312 0.0351562 7.285156 0.0351562 9.996094 C 0.0351562 12.710938 0.046875 13.050781 0.09375 14.117188 C 0.140625 15.179688 0.3125 15.910156 0.558594 16.542969 C 0.8125 17.214844 1.207031 17.816406 1.714844 18.316406 C 2.214844 18.824219 2.820312 19.21875 3.484375 19.46875 C 4.121094 19.714844 4.847656 19.886719 5.910156 19.933594 C 6.976562 19.980469 7.316406 19.992188 10.03125 19.992188 C 12.742188 19.992188 13.082031 19.980469 14.148438 19.933594 C 15.210938 19.886719 15.941406 19.714844 16.574219 19.46875 C 17.917969 18.949219 18.980469 17.886719 19.5 16.542969 C 19.746094 15.90625 19.917969 15.179688 19.964844 14.117188 C 20.011719 13.050781 20.023438 12.710938 20.023438 9.996094 C 20.023438 7.285156 20.019531 6.945312 19.972656 5.878906 Z M 18.171875 14.039062 C 18.128906 15.015625 17.964844 15.542969 17.828125 15.894531 C 17.492188 16.765625 16.800781 17.457031 15.929688 17.792969 C 15.578125 17.929688 15.046875 18.09375 14.074219 18.136719 C 13.019531 18.183594 12.703125 18.195312 10.039062 18.195312 C 7.371094 18.195312 7.050781 18.183594 6 18.136719 C 5.023438 18.09375 4.496094 17.929688 4.144531 17.792969 C 3.710938 17.632812 3.316406 17.378906 2.996094 17.046875 C 2.664062 16.722656 2.410156 16.332031 2.25 15.898438 C 2.113281 15.546875 1.949219 15.015625 1.90625 14.042969 C 1.859375 12.988281 1.847656 12.671875 1.847656 10.003906 C 1.847656 7.339844 1.859375 7.019531 1.90625 5.96875 C 1.949219 4.992188 2.113281 4.464844 2.25 4.113281 C 2.410156 3.679688 2.664062 3.285156 3 2.964844 C 3.324219 2.632812 3.714844 2.378906 4.148438 2.21875 C 4.5 2.082031 5.03125 1.917969 6.003906 1.875 C 7.058594 1.828125 7.375 1.816406 10.039062 1.816406 C 12.710938 1.816406 13.027344 1.828125 14.078125 1.875 C 15.054688 1.917969 15.582031 2.082031 15.933594 2.21875 C 16.367188 2.378906 16.761719 2.632812 17.082031 2.964844 C 17.414062 3.289062 17.667969 3.679688 17.828125 4.113281 C 17.964844 4.464844 18.128906 4.996094 18.171875 5.96875 C 18.21875 7.023438 18.230469 7.339844 18.230469 10.003906 C 18.230469 12.671875 18.21875 12.984375 18.171875 14.039062 Z M 18.171875 14.039062 "/>
<path style=" stroke:none;fill-rule:nonzero;fill:rgb(0%,0%,0%);fill-opacity:1;" d="M 10.03125 4.863281 C 7.199219 4.863281 4.898438 7.164062 4.898438 9.996094 C 4.898438 12.832031 7.199219 15.132812 10.03125 15.132812 C 12.867188 15.132812 15.167969 12.832031 15.167969 9.996094 C 15.167969 7.164062 12.867188 4.863281 10.03125 4.863281 Z M 10.03125 13.328125 C 8.195312 13.328125 6.703125 11.835938 6.703125 9.996094 C 6.703125 8.160156 8.195312 6.667969 10.03125 6.667969 C 11.871094 6.667969 13.363281 8.160156 13.363281 9.996094 C 13.363281 11.835938 11.871094 13.328125 10.03125 13.328125 Z M 10.03125 13.328125 "/>
<path style=" stroke:none;fill-rule:nonzero;fill:rgb(0%,0%,0%);fill-opacity:1;" d="M 16.570312 4.660156 C 16.570312 5.320312 16.035156 5.859375 15.371094 5.859375 C 14.710938 5.859375 14.171875 5.320312 14.171875 4.660156 C 14.171875 3.996094 14.710938 3.460938 15.371094 3.460938 C 16.035156 3.460938 16.570312 3.996094 16.570312 4.660156 Z M 16.570312 4.660156 "/>
</g>
</svg>
