<svg xmlns="http://www.w3.org/2000/svg" width="20pt" height="20pt" viewBox="0 0 20 20"><path d="M19.973 5.879c-.047-1.063-.22-1.793-.465-2.426a4.88 4.88 0 00-1.156-1.773 4.922 4.922 0 00-1.77-1.153C15.945.281 15.219.11 14.156.062 13.086.012 12.746 0 10.031 0c-2.71 0-3.05.012-4.117.059-1.062.046-1.793.218-2.426.464A4.88 4.88 0 001.715 1.68 4.922 4.922 0 00.562 3.45C.317 4.085.146 4.811.098 5.874.047 6.945.035 7.285.035 9.996c0 2.715.012 3.055.059 4.121.047 1.063.218 1.793.465 2.426a4.93 4.93 0 001.156 1.773c.5.508 1.105.903 1.77 1.153.636.246 1.363.418 2.425.465 1.067.046 1.406.058 4.121.058 2.711 0 3.051-.012 4.117-.058 1.063-.047 1.793-.22 2.426-.465a5.114 5.114 0 002.926-2.926c.246-.637.418-1.363.465-2.426.047-1.066.058-1.406.058-4.12 0-2.712-.003-3.052-.05-4.118zm-1.801 8.16c-.043.977-.207 1.504-.344 1.856a3.317 3.317 0 01-1.898 1.898c-.352.137-.883.3-1.856.344-1.054.047-1.37.058-4.035.058-2.668 0-2.988-.011-4.039-.058-.977-.043-1.504-.207-1.855-.344a3.076 3.076 0 01-1.149-.746 3.107 3.107 0 01-.746-1.149c-.137-.351-.3-.882-.344-1.855-.047-1.055-.058-1.371-.058-4.04 0-2.663.011-2.983.058-4.034.043-.977.207-1.504.344-1.856.16-.433.414-.828.75-1.148a3.107 3.107 0 011.148-.746c.352-.137.883-.301 1.856-.344 1.055-.047 1.371-.059 4.035-.059 2.672 0 2.988.012 4.04.059.976.043 1.503.207 1.855.344.433.16.828.414 1.148.746.332.324.586.715.746 1.148.137.352.3.883.344 1.856.047 1.054.058 1.37.058 4.035 0 2.668-.011 2.98-.058 4.035zm0 0"/><path d="M10.031 4.863a5.136 5.136 0 00-5.133 5.133 5.138 5.138 0 005.133 5.137 5.138 5.138 0 005.137-5.137c0-2.832-2.3-5.133-5.137-5.133zm0 8.465a3.33 3.33 0 113.332-3.332 3.333 3.333 0 01-3.332 3.332zM16.57 4.66a1.2 1.2 0 11-2.399 0 1.2 1.2 0 012.4 0zm0 0"/></svg>